<svg width="44" height="44" viewBox="0 0 44 44" fill="none" xmlns="http://www.w3.org/2000/svg">
    <g clip-path="url(#clip0_8_30)">
        <path
            d="M7.33337 23.8333C10.6024 24.2218 13.6456 25.6988 15.9734 28.0266C18.3012 30.3544 19.7782 33.3977 20.1667 36.6667C21.7872 35.7324 23.1427 34.4004 24.1051 32.7964C25.0675 31.1924 25.605 29.3695 25.6667 27.5C28.7451 26.4171 31.4332 24.4457 33.3912 21.835C35.3492 19.2244 36.489 16.0918 36.6667 12.8333C36.6667 11.3747 36.0872 9.97571 35.0558 8.94426C34.0243 7.91281 32.6254 7.33334 31.1667 7.33334C27.9083 7.51101 24.7757 8.6509 22.165 10.6089C19.5544 12.5668 17.583 15.255 16.5 18.3333C14.6305 18.3951 12.8076 18.9325 11.2037 19.8949C9.59969 20.8573 8.26762 22.2128 7.33337 23.8333Z"
            stroke="#0B2823" stroke-width="2.75" stroke-linecap="round" stroke-linejoin="round" />
        <path
            d="M12.8333 25.6667C10.9252 26.7439 9.38231 28.3664 8.4024 30.3262C7.42249 32.286 7.0502 34.4939 7.33328 36.6667C9.50607 36.9497 11.7139 36.5774 13.6737 35.5975C15.6335 34.6176 17.2561 33.0747 18.3333 31.1667"
            stroke="#0B2823" stroke-width="2.75" stroke-linecap="round" stroke-linejoin="round" />
        <path
            d="M25.6666 16.5C25.6666 16.9862 25.8598 17.4525 26.2036 17.7964C26.5474 18.1402 27.0137 18.3333 27.5 18.3333C27.9862 18.3333 28.4525 18.1402 28.7963 17.7964C29.1401 17.4525 29.3333 16.9862 29.3333 16.5C29.3333 16.0138 29.1401 15.5474 28.7963 15.2036C28.4525 14.8598 27.9862 14.6667 27.5 14.6667C27.0137 14.6667 26.5474 14.8598 26.2036 15.2036C25.8598 15.5474 25.6666 16.0138 25.6666 16.5Z"
            stroke="#0B2823" stroke-width="2.75" stroke-linecap="round" stroke-linejoin="round" />
    </g>
    <defs>
        <clipPath id="clip0_8_30">
            <rect width="44" height="44" fill="white" />
        </clipPath>
    </defs>
</svg>
    