<svg width="44" height="44" viewBox="0 0 44 44" fill="none" xmlns="http://www.w3.org/2000/svg">
    <g clip-path="url(#clip0_8_59)">
        <path
            d="M7.33331 9.16667C7.33331 8.19421 7.71962 7.26158 8.40725 6.57394C9.09489 5.88631 10.0275 5.5 11 5.5H33C33.9724 5.5 34.9051 5.88631 35.5927 6.57394C36.2803 7.26158 36.6666 8.19421 36.6666 9.16667V34.8333C36.6666 35.8058 36.2803 36.7384 35.5927 37.4261C34.9051 38.1137 33.9724 38.5 33 38.5H11C10.0275 38.5 9.09489 38.1137 8.40725 37.4261C7.71962 36.7384 7.33331 35.8058 7.33331 34.8333V9.16667Z"
            stroke="#352614" stroke-width="2.75" stroke-linecap="round" stroke-linejoin="round" />
        <path
            d="M14.6667 14.6666C14.6667 14.1804 14.8598 13.7141 15.2037 13.3703C15.5475 13.0265 16.0138 12.8333 16.5 12.8333H27.5C27.9863 12.8333 28.4526 13.0265 28.7964 13.3703C29.1402 13.7141 29.3334 14.1804 29.3334 14.6666V16.5C29.3334 16.9862 29.1402 17.4525 28.7964 17.7963C28.4526 18.1402 27.9863 18.3333 27.5 18.3333H16.5C16.0138 18.3333 15.5475 18.1402 15.2037 17.7963C14.8598 17.4525 14.6667 16.9862 14.6667 16.5V14.6666Z"
            stroke="#352614" stroke-width="2.75" stroke-linecap="round" stroke-linejoin="round" />
        <path d="M14.6667 25.6667V25.685" stroke="#352614" stroke-width="2.75"
            stroke-linecap="round" stroke-linejoin="round" />
        <path d="M22 25.6667V25.685" stroke="#352614" stroke-width="2.75" stroke-linecap="round"
            stroke-linejoin="round" />
        <path d="M29.3333 25.6667V25.685" stroke="#352614" stroke-width="2.75"
            stroke-linecap="round" stroke-linejoin="round" />
        <path d="M14.6667 31.1667V31.185" stroke="#352614" stroke-width="2.75"
            stroke-linecap="round" stroke-linejoin="round" />
        <path d="M22 31.1667V31.185" stroke="#352614" stroke-width="2.75" stroke-linecap="round"
            stroke-linejoin="round" />
        <path d="M29.3333 31.1667V31.185" stroke="#352614" stroke-width="2.75"
            stroke-linecap="round" stroke-linejoin="round" />
    </g>
    <defs>
        <clipPath id="clip0_8_59">
            <rect width="44" height="44" fill="white" />
        </clipPath>
    </defs>
</svg>
    