<svg width="44" height="44" viewBox="0 0 44 44" fill="none" xmlns="http://www.w3.org/2000/svg">
    <g clip-path="url(#clip0_8_26)">
        <path
            d="M10.3326 10.3327C11.9743 8.69075 13.944 7.41378 16.1129 6.58524C18.2819 5.7567 20.6013 5.39525 22.9195 5.52451C25.2377 5.65377 27.5026 6.27084 29.566 7.33537C31.6294 8.3999 33.4449 9.88792 34.8938 11.7022L24.5923 22L34.8938 32.2978C33.4926 34.0494 31.7489 35.4968 29.7694 36.5517C27.7898 37.6066 25.616 38.2468 23.3807 38.4332C21.1453 38.6196 18.8955 38.3483 16.7686 37.6358C14.6417 36.9233 12.6824 35.7847 11.0104 34.2894C9.33837 32.7942 7.98881 30.9737 7.04415 28.9392C6.09948 26.9048 5.57955 24.6991 5.51612 22.4569C5.45269 20.2147 5.84709 17.9831 6.67523 15.8985C7.50337 13.8139 8.74785 11.9201 10.3326 10.3327Z"
            stroke="#1F292D" stroke-width="2.75" stroke-linecap="round" stroke-linejoin="round" />
        <path
            d="M21.0833 15.5833C22.0959 15.5833 22.9167 14.7625 22.9167 13.75C22.9167 12.7375 22.0959 11.9167 21.0833 11.9167C20.0708 11.9167 19.25 12.7375 19.25 13.75C19.25 14.7625 20.0708 15.5833 21.0833 15.5833Z"
            fill="#1F292D" stroke="#1F292D" stroke-width="2.75" stroke-linecap="round"
            stroke-linejoin="round" />
    </g>
    <defs>
        <clipPath id="clip0_8_26">
            <rect width="44" height="44" fill="white" />
        </clipPath>
    </defs>
</svg>
    