<svg width="44" height="44" viewBox="0 0 44 44" fill="none" xmlns="http://www.w3.org/2000/svg">
    <g clip-path="url(#clip0_8_21)">
        <path
            d="M36.6667 31.1667V9.16667C36.6667 7.1115 35.0552 5.5 33 5.5C30.9449 5.5 29.3334 7.1115 29.3334 9.16667V31.1667L33 34.8333L36.6667 31.1667Z"
            stroke="#352614" stroke-width="2.75" stroke-linecap="round" stroke-linejoin="round" />
        <path d="M29.3334 12.8333H36.6667" stroke="#352614" stroke-width="2.75"
            stroke-linecap="round" stroke-linejoin="round" />
        <path
            d="M33 34.8333H9.16667C8.19421 34.8333 7.26158 34.447 6.57394 33.7594C5.88631 33.0718 5.5 32.1391 5.5 31.1667C5.5 30.1942 5.88631 29.2616 6.57394 28.5739C7.26158 27.8863 8.19421 27.5 9.16667 27.5H16.5C17.4725 27.5 18.4051 27.1137 19.0927 26.4261C19.7804 25.7384 20.1667 24.8058 20.1667 23.8333C20.1667 22.8609 19.7804 21.9282 19.0927 21.2406C18.4051 20.553 17.4725 20.1667 16.5 20.1667H11"
            stroke="#352614" stroke-width="2.75" stroke-linecap="round" stroke-linejoin="round" />
    </g>
    <defs>
        <clipPath id="clip0_8_21">
            <rect width="44" height="44" fill="white" />
        </clipPath>
    </defs>
</svg>
    