<svg width="44" height="44" viewBox="0 0 44 44" fill="none" xmlns="http://www.w3.org/2000/svg">
    <g clip-path="url(#clip0_8_51)">
        <path
            d="M18.3334 23.8333C18.3334 24.8058 18.7197 25.7384 19.4073 26.426C20.0949 27.1137 21.0276 27.5 22 27.5C22.9725 27.5 23.9051 27.1137 24.5928 26.426C25.2804 25.7384 25.6667 24.8058 25.6667 23.8333C25.6667 22.8609 25.2804 21.9282 24.5928 21.2406C23.9051 20.553 22.9725 20.1667 22 20.1667C21.0276 20.1667 20.0949 20.553 19.4073 21.2406C18.7197 21.9282 18.3334 22.8609 18.3334 23.8333Z"
            stroke="#431C05" stroke-width="2.75" stroke-linecap="round" stroke-linejoin="round" />
        <path
            d="M14.6666 38.5V36.6667C14.6666 35.6942 15.0529 34.7616 15.7406 34.0739C16.4282 33.3863 17.3608 33 18.3333 33H25.6666C26.6391 33 27.5717 33.3863 28.2594 34.0739C28.947 34.7616 29.3333 35.6942 29.3333 36.6667V38.5"
            stroke="#431C05" stroke-width="2.75" stroke-linecap="round" stroke-linejoin="round" />
        <path
            d="M27.5 9.16667C27.5 10.1391 27.8863 11.0718 28.5739 11.7594C29.2616 12.447 30.1942 12.8333 31.1667 12.8333C32.1391 12.8333 33.0718 12.447 33.7594 11.7594C34.447 11.0718 34.8333 10.1391 34.8333 9.16667C34.8333 8.19421 34.447 7.26158 33.7594 6.57394C33.0718 5.88631 32.1391 5.5 31.1667 5.5C30.1942 5.5 29.2616 5.88631 28.5739 6.57394C27.8863 7.26158 27.5 8.19421 27.5 9.16667Z"
            stroke="#431C05" stroke-width="2.75" stroke-linecap="round" stroke-linejoin="round" />
        <path
            d="M31.1666 18.3333H34.8333C35.8058 18.3333 36.7384 18.7197 37.426 19.4073C38.1137 20.0949 38.5 21.0275 38.5 22V23.8333"
            stroke="#431C05" stroke-width="2.75" stroke-linecap="round" stroke-linejoin="round" />
        <path
            d="M9.16663 9.16667C9.16663 10.1391 9.55293 11.0718 10.2406 11.7594C10.9282 12.447 11.8608 12.8333 12.8333 12.8333C13.8058 12.8333 14.7384 12.447 15.426 11.7594C16.1137 11.0718 16.5 10.1391 16.5 9.16667C16.5 8.19421 16.1137 7.26158 15.426 6.57394C14.7384 5.88631 13.8058 5.5 12.8333 5.5C11.8608 5.5 10.9282 5.88631 10.2406 6.57394C9.55293 7.26158 9.16663 8.19421 9.16663 9.16667Z"
            stroke="#431C05" stroke-width="2.75" stroke-linecap="round" stroke-linejoin="round" />
        <path
            d="M5.5 23.8333V22C5.5 21.0275 5.88631 20.0949 6.57394 19.4073C7.26158 18.7197 8.19421 18.3333 9.16667 18.3333H12.8333"
            stroke="#431C05" stroke-width="2.75" stroke-linecap="round" stroke-linejoin="round" />
    </g>
    <defs>
        <clipPath id="clip0_8_51">
            <rect width="44" height="44" fill="white" />
        </clipPath>
    </defs>
</svg>
    