<svg width="32" height="32" viewBox="0 0 32 32" fill="none" xmlns="http://www.w3.org/2000/svg">
    <g clip-path="url(#clip0_8_151)">
    <path d="M11.244 7.99999H4.00001L3.84801 8.00799C3.62647 8.03352 3.41487 8.1142 3.23258 8.24265C3.05029 8.37111 2.90313 8.54323 2.80457 8.74327C2.70601 8.94331 2.65919 9.16488 2.66841 9.38769C2.67763 9.6105 2.74259 9.82745 2.85734 10.0187L6.44401 16L2.85734 21.9813L2.78534 22.1147C2.69294 22.3178 2.65301 22.541 2.66924 22.7636C2.68546 22.9862 2.75731 23.2012 2.87819 23.3888C2.99908 23.5764 3.16514 23.7307 3.36114 23.8375C3.55713 23.9443 3.77681 24.0002 4.00001 24H11.2453L14.8573 30.0187L14.956 30.1627C15.0901 30.3312 15.263 30.4648 15.46 30.5519C15.657 30.639 15.8721 30.6772 16.087 30.663C16.302 30.6489 16.5102 30.5828 16.6941 30.4706C16.8779 30.3584 17.0318 30.2033 17.1427 30.0187L20.7533 24H28L28.152 23.992C28.3735 23.9665 28.5851 23.8858 28.7674 23.7573C28.9497 23.6289 29.0969 23.4568 29.1954 23.2567C29.294 23.0567 29.3408 22.8351 29.3316 22.6123C29.3224 22.3895 29.2574 22.1725 29.1427 21.9813L25.5547 16L29.1427 10.0187L29.2147 9.88533C29.3071 9.68215 29.347 9.45903 29.3308 9.23642C29.3146 9.0138 29.2427 8.79883 29.1218 8.6112C29.0009 8.42356 28.8349 8.26928 28.6389 8.16249C28.4429 8.05571 28.2232 7.99983 28 7.99999H20.7547L17.1427 1.98133C17.0241 1.78419 16.8566 1.62108 16.6564 1.50784C16.4562 1.3946 16.23 1.33508 16 1.33508C15.77 1.33508 15.5439 1.3946 15.3436 1.50784C15.1434 1.62108 14.9759 1.78419 14.8573 1.98133L11.244 7.99999Z" fill="#F3E5C2"/>
    </g>
    <defs>
    <clipPath id="clip0_8_151">
    <rect width="32" height="32" fill="white"/>
    </clipPath>
    </defs>
    </svg>
    