<svg width="1280" height="173" viewBox="0 0 1280 173" fill="none" xmlns="http://www.w3.org/2000/svg">
    <path
        d="M0 149.333L16.3556 147.933C32.7111 146.533 65.4222 143.733 98.1333 151.387C130.844 158.947 163.556 177.053 196.551 170.8C229.404 164.547 262.684 134.12 295.538 121.147C328.533 108.267 361.244 112.933 393.956 129.267C426.667 145.6 459.378 173.6 492.089 165.667C524.8 157.733 557.511 113.867 590.507 91.9333C623.36 70 656.64 70 689.493 79.0533C722.489 88.0133 755.2 106.12 787.911 111.533C820.622 116.947 853.333 109.853 886.044 100.987C918.756 92.12 951.467 81.48 984.462 93.0533C1017.32 104.533 1050.6 138.133 1083.45 142.8C1116.44 147.467 1149.16 123.2 1181.87 114.613C1214.58 106.12 1247.29 113.213 1263.64 116.853L1280 120.4V0H1263.64C1247.29 0 1214.58 0 1181.87 0C1149.16 0 1116.44 0 1083.45 0C1050.6 0 1017.32 0 984.462 0C951.467 0 918.756 0 886.044 0C853.333 0 820.622 0 787.911 0C755.2 0 722.489 0 689.493 0C656.64 0 623.36 0 590.507 0C557.511 0 524.8 0 492.089 0C459.378 0 426.667 0 393.956 0C361.244 0 328.533 0 295.538 0C262.684 0 229.404 0 196.551 0C163.556 0 130.844 0 98.1333 0C65.4222 0 32.7111 0 16.3556 0H0V149.333Z"
        fill="#52BCA0" />
</svg>