<svg width="1280" height="173" fill="none" xmlns="http://www.w3.org/2000/svg"><path d="m0 149.333 16.356-1.4c16.355-1.4 49.066-4.2 81.777 3.454 32.711 7.56 65.423 25.666 98.418 19.413 32.853-6.253 66.133-36.68 98.987-49.653 32.995-12.88 65.706-8.214 98.418 8.12 32.711 16.333 65.422 44.333 98.133 36.4 32.711-7.934 65.422-51.8 98.418-73.734C623.36 70 656.64 70 689.493 79.053c32.996 8.96 65.707 27.067 98.418 32.48 32.711 5.414 65.422-1.68 98.133-10.546 32.712-8.867 65.423-19.507 98.418-7.934 32.858 11.48 66.138 45.08 98.988 49.747 32.99 4.667 65.71-19.6 98.42-28.187 32.71-8.493 65.42-1.4 81.77 2.24L1280 120.4V0H0v149.333z" fill="#52BCA0"/></svg>